<svg width="794" height="179" viewBox="0 0 794 179" fill="none" xmlns="http://www.w3.org/2000/svg">
<g clip-path="url(#clip0_3155_3998)">
<path d="M82.4379 94.2155L148.639 159.43L148.795 159.584C157.075 167.73 167.62 173.276 179.098 175.52C190.576 177.765 202.473 176.608 213.283 172.195C224.094 167.782 233.334 160.311 239.837 150.727C246.339 141.143 249.812 129.875 249.816 118.347V58.249C249.816 42.7923 243.583 27.9686 232.489 17.039C221.394 6.10939 206.346 -0.0307617 190.655 -0.0307617C174.965 -0.0307617 159.917 6.10939 148.822 17.039C137.727 27.9686 131.494 42.7923 131.494 58.249V87.5276C131.494 90.3885 132.648 93.1322 134.701 95.1551C136.755 97.178 139.54 98.3145 142.444 98.3145C145.348 98.3145 148.133 97.178 150.187 95.1551C152.24 93.1322 153.394 90.3885 153.394 87.5276V58.249C153.675 48.694 157.726 39.6232 164.686 32.9626C171.646 26.3019 180.967 22.5761 190.671 22.5761C200.374 22.5761 209.696 26.3019 216.656 32.9626C223.616 39.6232 227.667 48.694 227.948 58.249V118.347C227.958 125.614 225.778 132.721 221.685 138.767C217.591 144.813 211.768 149.525 204.953 152.308C198.138 155.09 190.638 155.817 183.403 154.397C176.168 152.976 169.524 149.472 164.313 144.328V144.328L98.6127 79.607L98.3623 79.3296C98.2755 79.193 98.1703 79.0686 98.0496 78.9598C88.0539 69.4756 74.924 63.8566 61.0653 63.1321C47.2066 62.4076 33.5469 66.6262 22.5884 75.0149L21.7437 75.1998V58.249C21.7395 50.9844 23.9237 43.8819 28.0197 37.8409C32.1157 31.7998 37.9392 27.0919 44.753 24.3133C51.5668 21.5347 59.0644 20.8103 66.2963 22.2319C73.5283 23.6534 80.1694 27.1569 85.3788 32.2989C86.3957 33.3006 87.6028 34.0953 88.9314 34.6374C90.26 35.1795 91.684 35.4585 93.122 35.4585C94.5601 35.4585 95.984 35.1795 97.3126 34.6374C98.6412 34.0953 99.8484 33.3006 100.865 32.2989C101.882 31.2972 102.689 30.1081 103.239 28.7993C103.789 27.4905 104.073 26.0878 104.073 24.6712C104.073 23.2545 103.789 21.8517 103.239 20.5429C102.689 19.2342 101.882 18.045 100.865 17.0433C92.5856 8.90947 82.046 3.37356 70.576 1.134C59.1061 -1.10556 47.2197 0.0515229 36.4166 4.45937C25.6135 8.86721 16.3777 16.3283 9.87434 25.9013C3.37101 35.4742 -0.10839 46.7302 -0.125 58.249V119.888C-0.112049 132.237 3.97718 144.247 11.5258 154.107C19.0744 163.966 29.6729 171.139 41.7226 174.545C53.7723 177.951 66.6195 177.405 78.3262 172.988C90.033 168.571 99.9642 160.524 106.622 150.061C107.45 148.861 108.024 147.508 108.309 146.085C108.595 144.661 108.585 143.195 108.282 141.775C107.979 140.355 107.388 139.01 106.545 137.82C105.701 136.63 104.623 135.62 103.374 134.851C102.126 134.081 100.732 133.568 99.277 133.341C97.822 133.114 96.3355 133.179 94.9066 133.532C93.4776 133.884 92.1356 134.517 90.9608 135.392C89.786 136.268 88.8026 137.368 88.0694 138.626C84.1539 144.801 78.3987 149.634 71.5901 152.465C64.7815 155.296 57.2516 155.987 50.0292 154.444C42.8068 152.901 36.2443 149.199 31.238 143.844C26.2318 138.488 23.0261 131.741 22.059 124.523C21.0919 117.306 22.4106 109.97 25.8347 103.518C29.2589 97.0669 34.6216 91.8141 41.1902 88.4778C47.7588 85.1415 55.2128 83.8845 62.5339 84.8783C69.855 85.8721 76.6861 89.0684 82.0938 94.0305L82.2502 94.2155H82.4379Z" fill="#15346E"/>
<path d="M380.372 138.626C377.473 138.626 374.692 139.759 372.64 141.775C370.587 143.791 369.43 146.527 369.422 149.383V162.758C369.422 165.619 370.575 168.363 372.629 170.386C374.682 172.409 377.468 173.545 380.372 173.545C383.276 173.545 386.061 172.409 388.114 170.386C390.168 168.363 391.322 165.619 391.322 162.758V149.383C391.313 146.527 390.156 143.791 388.103 141.775C386.051 139.759 383.27 138.626 380.372 138.626V138.626Z" fill="#15346E"/>
<path d="M380.372 2.80469C377.468 2.80469 374.682 3.94112 372.629 5.96405C370.575 7.98698 369.422 10.7307 369.422 13.5915V65.4608C369.422 68.3217 370.575 71.0654 372.629 73.0883C374.682 75.1112 377.468 76.2476 380.372 76.2476C383.276 76.2476 386.061 75.1112 388.114 73.0883C390.168 71.0654 391.322 68.3217 391.322 65.4608V13.5607C391.313 10.7052 390.156 7.9694 388.103 5.95314C386.051 3.93687 383.27 2.80468 380.372 2.80469V2.80469Z" fill="#15346E"/>
<path d="M439.783 130.028H507.36C507.599 130.059 507.841 130.059 508.08 130.028C509.515 129.988 510.929 129.669 512.238 129.089C513.548 128.509 514.728 127.679 515.711 126.648C516.694 125.617 517.46 124.404 517.965 123.08C518.47 121.756 518.705 120.347 518.655 118.933C517.622 86.8189 493.313 62.5947 462.09 62.5947C451.547 62.6952 441.211 65.4884 432.092 70.7012C422.972 75.9141 415.382 83.3683 410.062 92.3356C409.347 93.5633 408.884 94.9181 408.702 96.3222C408.519 97.7262 408.619 99.152 408.997 100.518C409.375 101.884 410.023 103.162 410.904 104.281C411.784 105.4 412.88 106.336 414.129 107.036C416.648 108.451 419.634 108.824 422.432 108.073C425.229 107.322 427.61 105.508 429.052 103.03C432.43 97.3346 437.249 92.5998 443.04 89.2883C448.831 85.9769 455.395 84.2022 462.09 84.1376C469.457 84.0562 476.647 86.3575 482.558 90.6887C488.469 95.0199 492.775 101.142 494.815 108.115V108.485H439.783C436.879 108.485 434.094 109.622 432.04 111.644C429.987 113.667 428.833 116.411 428.833 119.272C428.833 122.133 429.987 124.876 432.04 126.899C434.094 128.922 436.879 130.059 439.783 130.059V130.028Z" fill="#15346E"/>
<path d="M277.786 2.80481C274.887 2.81297 272.11 3.95304 270.063 5.97508C268.016 7.99713 266.867 10.7361 266.867 13.5917V162.758C266.867 165.619 268.021 168.363 270.074 170.386C272.128 172.409 274.913 173.545 277.817 173.545C280.721 173.545 283.506 172.409 285.56 170.386C287.613 168.363 288.767 165.619 288.767 162.758V120.844C288.758 113.599 290.929 106.513 295.006 100.483C299.083 94.4535 304.883 89.7495 311.673 86.9658C318.463 84.182 325.939 83.4435 333.155 84.8436C340.371 86.2437 347.003 89.7196 352.215 94.8319V94.8319L418.321 159.954L418.509 160.108L418.697 160.262C424.241 166.134 430.951 170.822 438.41 174.034C445.869 177.247 453.918 178.916 462.059 178.939C469.848 178.957 477.563 177.449 484.755 174.502C491.947 171.555 498.472 167.227 503.95 161.772C505.51 160.267 506.577 158.337 507.015 156.229C507.453 154.122 507.241 151.934 506.407 149.946C505.573 147.958 504.155 146.262 502.334 145.074C500.514 143.886 498.375 143.261 496.191 143.28V143.28C494.756 143.266 493.332 143.531 492 144.06C490.669 144.589 489.457 145.371 488.433 146.362C484.856 149.91 480.579 152.699 475.866 154.556C471.153 156.414 466.104 157.301 461.03 157.162C455.956 157.023 450.964 155.862 446.363 153.751C441.762 151.639 437.649 148.621 434.277 144.883L433.808 144.451C433.689 144.376 433.584 144.282 433.495 144.174L367.607 79.2681C357.351 69.2599 343.724 63.3053 329.308 62.5328C314.893 61.7603 300.691 66.2235 289.393 75.0766L288.892 75.4773V13.5608C288.888 12.1338 288.597 10.7217 288.035 9.40645C287.473 8.09116 286.652 6.89875 285.619 5.89834C284.586 4.89792 283.362 4.10933 282.017 3.57831C280.673 3.04729 279.234 2.78442 277.786 2.80481V2.80481Z" fill="#15346E"/>
<path d="M692.29 164.237C692.313 164.899 692.387 165.559 692.509 166.21C692.538 166.424 692.602 166.632 692.697 166.826V167.165V167.504L692.947 168.244C692.947 168.491 693.197 168.737 693.323 168.984V169.261C693.393 169.354 693.446 169.458 693.479 169.569L693.792 170.093C694.616 171.315 695.68 172.363 696.921 173.175L697.484 173.483L697.797 173.637H698.078C698.311 173.773 698.551 173.896 698.798 174.007L699.642 174.254H699.924H700.268L700.831 174.439C701.543 174.572 702.265 174.644 702.99 174.654H782.8C785.704 174.654 788.489 173.518 790.543 171.495C792.596 169.472 793.75 166.728 793.75 163.868C793.75 161.007 792.596 158.263 790.543 156.24C788.489 154.217 785.704 153.081 782.8 153.081H729.645L730.177 152.588L790.809 92.8594C791.306 92.3447 791.756 91.7877 792.154 91.1951C792.271 91.0447 792.366 90.8786 792.436 90.702L792.624 90.363V90.1473C792.784 89.893 792.92 89.6248 793.03 89.3459C793.128 89.1146 793.211 88.8779 793.281 88.637V88.2672C793.268 88.1648 793.268 88.0615 793.281 87.9591C793.295 87.7539 793.295 87.5479 793.281 87.3427C793.401 86.6808 793.475 86.0114 793.5 85.3394V85.1236C793.476 84.4515 793.403 83.782 793.281 83.1204C793.298 82.9153 793.298 82.7091 793.281 82.504C793.268 82.3913 793.268 82.2776 793.281 82.165V81.8259C793.216 81.5836 793.133 81.3466 793.03 81.1171C792.927 80.8355 792.79 80.5666 792.624 80.3158V80.0692L792.436 79.7611C792.367 79.5745 792.272 79.3982 792.154 79.2371C791.342 78.0057 790.276 76.9558 789.026 76.1551L788.463 75.8162L788.15 75.662H787.868L787.149 75.2922L786.241 75.0148H785.991H785.647L785.115 74.8299C784.402 74.7069 783.68 74.6451 782.956 74.645H703.991C701.087 74.645 698.302 75.7815 696.248 77.8044C694.195 79.8273 693.041 82.571 693.041 85.4319C693.041 88.2927 694.195 91.0363 696.248 93.0593C698.302 95.0822 701.087 96.2187 703.991 96.2187H756.645L756.113 96.7426L695.513 156.471C694.995 156.965 694.533 157.512 694.136 158.104L693.823 158.628C693.791 158.74 693.738 158.844 693.667 158.937V159.245C693.517 159.468 693.392 159.705 693.291 159.954L693.041 160.693V161.032V161.371C692.946 161.566 692.882 161.774 692.853 161.988C692.729 162.649 692.656 163.319 692.634 163.991L692.29 164.237Z" fill="#15346E"/>
<path d="M541.712 65.9541C538.808 65.9541 536.023 67.0905 533.969 69.1135C531.916 71.1364 530.762 73.8801 530.762 76.7409V164.145C530.762 167.006 531.916 169.75 533.969 171.773C536.023 173.796 538.808 174.932 541.712 174.932C544.616 174.932 547.401 173.796 549.455 171.773C551.508 169.75 552.662 167.006 552.662 164.145V135.206C552.679 124.825 556.874 114.874 564.329 107.536C571.784 100.198 581.888 96.0729 592.426 96.0648C595.33 96.0648 598.116 94.9283 600.169 92.9054C602.223 90.8825 603.376 88.1388 603.376 85.2779C603.376 82.4171 602.223 79.6735 600.169 77.6505C598.116 75.6276 595.33 74.4911 592.426 74.4911C578.09 74.5119 564.208 79.4481 553.163 88.4523L552.662 88.853V76.7409C552.662 73.8801 551.508 71.1364 549.455 69.1135C547.401 67.0905 544.616 65.9541 541.712 65.9541Z" fill="#15346E"/>
<path d="M621.334 35.8125C618.43 35.8125 615.645 36.9489 613.592 38.9719C611.538 40.9948 610.384 43.7385 610.384 46.5993V139.058C610.393 148.537 614.219 157.626 621.023 164.329C627.827 171.031 637.053 174.801 646.676 174.809C661.755 174.809 671.204 165.563 678.775 157.95L679.745 156.995C680.76 155.995 681.564 154.809 682.114 153.502C682.663 152.196 682.945 150.796 682.945 149.383C682.945 147.969 682.663 146.569 682.114 145.263C681.564 143.957 680.76 142.77 679.745 141.77C678.73 140.77 677.525 139.977 676.199 139.436C674.873 138.895 673.452 138.617 672.017 138.617C670.582 138.617 669.161 138.895 667.835 139.436C666.509 139.977 665.304 140.77 664.29 141.77L663.288 142.726C656.687 149.259 652.37 153.235 646.676 153.235C642.859 153.235 639.198 151.741 636.499 149.083C633.801 146.424 632.284 142.818 632.284 139.058V96.2496H672.017C674.921 96.2496 677.706 95.1132 679.76 93.0902C681.813 91.0673 682.967 88.3236 682.967 85.4628C682.967 82.6019 681.813 79.8583 679.76 77.8354C677.706 75.8124 674.921 74.6759 672.017 74.6759H632.284V46.5685C632.276 43.713 631.119 40.9772 629.066 38.961C627.013 36.9447 624.233 35.8125 621.334 35.8125V35.8125Z" fill="#15346E"/>
</g>
<defs>
<clipPath id="clip0_3155_3998">
<rect width="794" height="179" fill="white"/>
</clipPath>
</defs>
</svg>
